<svg width="24" height="24" viewBox="0 0 24 24" fill="none" xmlns="http://www.w3.org/2000/svg">
<g clip-path="url(#clip0_626_2835)">
<path d="M16.4797 10.4097C16.0897 10.7997 15.4397 10.7997 15.0497 10.4097L10.5797 5.94972L3.52969 12.9897L2.86969 12.3597C1.69969 11.1897 1.69969 9.28972 2.86969 8.11972L7.10969 3.87972C8.27969 2.70972 10.1797 2.70972 11.3497 3.87972L16.4797 8.99972C16.8697 9.38972 16.8697 10.0197 16.4797 10.4097ZM17.1797 8.28972C17.9597 9.06972 17.9597 10.3397 17.1797 11.1197C15.9097 12.3897 14.5697 11.3397 14.3497 11.1197L10.5897 7.35972L5.01969 12.9297C4.62969 13.3197 4.62969 13.9497 5.01969 14.3397C5.40969 14.7297 6.03969 14.7297 6.43969 14.3397L11.0597 9.71972L11.7697 10.4297L7.14969 15.0497C6.75969 15.4397 6.75969 16.0697 7.14969 16.4597C7.53969 16.8497 8.16969 16.8497 8.56969 16.4597L13.1897 11.8397L13.8997 12.5497L9.27969 17.1697C8.88969 17.5597 8.88969 18.1897 9.27969 18.5797C9.66969 18.9697 10.2997 18.9697 10.6897 18.5797L15.3097 13.9597L16.0197 14.6697L11.3997 19.2897C11.0097 19.6797 11.0097 20.3097 11.3997 20.6997C11.7897 21.0897 12.4197 21.0897 12.8097 20.6997L21.1297 12.3597C22.2997 11.1897 22.2997 9.28972 21.1297 8.11972L16.8897 3.87972C15.7397 2.72972 13.8797 2.70972 12.7097 3.81972L17.1797 8.28972Z" fill="#666666"/>
</g>
<defs>
<clipPath id="clip0_626_2835">
<rect width="24" height="24" fill="white"/>
</clipPath>
</defs>
</svg>
